<svg width="342" height="286" viewBox="0 0 342 286" fill="none" xmlns="http://www.w3.org/2000/svg">
<g clip-path="url(#clip0_249_4)">
<path d="M0 0V285.74H285.74V285.64H286.17V134.86C320.94 121.05 341.05 92.08 341.05 52.1V0H0ZM250.37 101.85C249.95 101.89 249.53 101.91 249.1 101.9C248.85 101.9 245.6 101.9 245.6 101.9L245.49 245.49H40.24V40.24H291.15C292.2 44.32 292.72 48.61 292.72 53.04C292.72 58.64 292.14 64.27 290.65 69.68C289.28 74.67 287.11 79.45 284.05 83.63C280.92 87.91 276.91 91.49 272.39 94.25C267.09 97.48 261.17 99.6 255.13 100.97C253.54 101.33 251.98 101.7 250.37 101.84V101.85Z" fill="#9DA322"/>
</g>
<defs>
<clipPath id="clip0_249_4">
<rect width="341.05" height="285.74" fill="white"/>
</clipPath>
</defs>
</svg>
