<svg width="439" height="400" viewBox="0 0 439 400" fill="none" xmlns="http://www.w3.org/2000/svg">
    <g clip-path="url(#clip0_251_10)">
        <path
            d="M49 57V342.74H334.74V342.64H335.17V191.86C369.94 178.05 390.05 149.08 390.05 109.1V57H49ZM299.37 158.85C298.95 158.89 298.53 158.91 298.1 158.9C297.85 158.9 294.6 158.9 294.6 158.9L294.49 302.49H89.24V97.24H340.15C341.2 101.32 341.72 105.61 341.72 110.04C341.72 115.64 341.14 121.27 339.65 126.68C338.28 131.67 336.11 136.45 333.05 140.63C329.92 144.91 325.91 148.49 321.39 151.25C316.09 154.48 310.17 156.6 304.13 157.97C302.54 158.33 300.98 158.7 299.37 158.84V158.85Z"
            fill="currentColor"></path>
    </g>
    <defs>
        <clipPath id="clip0_251_10">
            <rect width="341.05" height="285.74" fill="currentColor" transform="translate(49 57)"></rect>
        </clipPath>
    </defs>
</svg>
